Coordinates
version=1
nRows=19
nColumns=36
inDegrees=yes

Units are S.I. units (second, meters, Newtons, ...)
If the header above contains a line with 'inDegrees', this indicates whether rotational values are in degrees (yes) or radians (no).

endheader
time	pelvis_tilt	pelvis_list	pelvis_rotation	pelvis_tx	pelvis_ty	pelvis_tz	hip_flexion_r	hip_adduction_r	hip_rotation_r	knee_angle_r	knee_angle_r_beta	ankle_angle_r	subtalar_angle_r	mtp_angle_r	hip_flexion_l	hip_adduction_l	hip_rotation_l	knee_angle_l	knee_angle_l_beta	ankle_angle_l	subtalar_angle_l	mtp_angle_l	lumbar_extension	lumbar_bending	lumbar_rotation	arm_flex_r	arm_add_r	arm_rot_r	elbow_flex_r	pro_sup_r	arm_flex_l	arm_add_l	arm_rot_l	elbow_flex_l	pro_sup_l
      0.60000000	      3.65960068	      5.33542177	     -1.88259494	      0.69764073	      0.87291432	     -0.17386200	    -11.66508958	     -4.46887864	     -1.65883257	     47.39841591	      0.82725842	     -6.88108683	     -4.72747719	     -7.24253720	     22.64606900	      7.38011136	     -3.89018037	     23.70251149	      0.41368687	      0.30082510	     -6.04967047	     -7.24253720	    -11.77537768	     -6.93135546	      7.62787178	      7.15299102	     -8.19629245	     -1.62267739	     33.99056456	    100.92208756	     -6.70404503	     -8.20664365	     -6.28789721	      4.98744988	     75.23167918
      0.61000000	      3.93320357	      5.82611463	     -1.71203542	      0.71234726	      0.87442621	     -0.17524453	     -9.96087157	     -5.32774901	     -1.93462451	     51.27949233	      0.89499598	    -10.40582468	     -6.52015313	     -7.25238534	     21.85292503	      8.04231941	     -3.78970281	     24.86803473	      0.43402908	      1.35429895	     -5.92753785	     -7.25238534	    -12.04736619	     -7.41175477	      6.95209677	      6.91525077	     -7.63226119	     -1.94819893	     32.83068256	    100.76618594	     -6.18631435	     -8.10076792	     -6.19967873	      5.38770511	     75.41093635
      0.62000000	      4.36507728	      6.44698009	     -1.59518308	      0.72673041	      0.87636195	     -0.17663685	     -8.32981588	     -6.42860492	     -2.19418296	     55.09394551	      0.96157075	    -12.19522354	     -6.97557331	     -7.25521192	     20.62561240	      8.87182628	     -3.76805784	     25.45998600	      0.44436058	      2.34793880	     -5.94143003	     -7.25521192	    -12.55516236	     -8.03088269	      6.33682356	      6.56334624	     -7.18349133	     -2.10956390	     32.06464300	    100.67771723	     -5.46662496	     -8.00847597	     -6.09656753	      5.82245797	     75.52634957
      0.63000000	      4.50992059	      6.77741404	     -1.46273421	      0.74064720	      0.87815064	     -0.17778858	     -6.27069448	     -7.02742795	     -2.15779807	     58.72118697	      1.02487805	    -13.75919403	     -9.05929833	     -7.26399844	     19.64435193	      9.31463007	     -3.86222411	     25.93344665	      0.45262403	      3.51706851	     -5.31447654	     -7.26399844	    -12.76657965	     -8.30676422	      5.68902699	      6.41622871	     -6.66038691	     -2.49118861	     30.78607863	    100.47622212	     -4.85773506	     -7.87441981	     -5.96227836	      6.56861071	     75.90362442
      0.64000000	      4.85913738	      7.14736365	     -1.44493473	      0.75431126	      0.88040421	     -0.17881797	     -4.38809792	     -7.70658676	     -2.04223140	     62.10374967	      1.08391491	    -13.70880774	    -10.32608165	     -7.26711469	     18.17574960	      9.83916635	     -3.93439771	     25.82892341	      0.45079976	      4.45002796	     -5.11831578	     -7.26711469	    -13.23559485	     -8.63386733	      5.20394315	      6.13401515	     -6.27312031	     -2.66776911	     29.95221270	    100.36745482	     -4.00587495	     -7.73179062	     -5.84126006	      7.28651885	     76.11902122
      0.65000000	      4.99921123	      7.25675551	     -1.44661574	      0.76766515	      0.88257486	     -0.17965121	     -2.21801861	     -7.95445271	     -1.73072106	     65.17085118	      1.13744593	    -13.29648476	    -12.35355922	     -7.27486466	     16.91637690	     10.01785742	     -4.14796285	     25.70618800	      0.44865762	      5.46908412	     -4.39907427	     -7.27486466	    -13.47730648	     -8.67126803	      4.68003153	      6.03663192	     -5.83763233	     -3.03495326	     28.73286574	    100.14025019	     -3.35299648	     -7.56709034	     -5.81272217	      8.47727223	     76.65720581
      0.66000000	      5.33240820	      7.31002300	     -1.57211263	      0.78087228	      0.88520292	     -0.18030750	     -0.26841960	     -8.11646166	     -1.31432928	     67.80670636	      1.18345028	    -12.09964433	    -13.86569913	     -7.27711148	     15.23717745	     10.20398625	     -4.15922431	     25.13691239	      0.43872188	      6.24023229	     -4.21967314	     -7.27711148	    -13.94461993	     -8.67333327	      4.39675267	      5.75050965	     -5.56421170	     -3.15063704	     27.95592841	    100.03862289	     -2.38967809	     -7.36370834	     -5.71744142	      9.41240713	     76.89685865
      0.67000000	      5.51568288	      7.20968184	     -1.68162675	      0.79400557	      0.88775815	     -0.18101517	      1.81387731	     -8.05850269	     -0.91045529	     70.00672283	      1.22184781	    -10.71697004	    -15.43928796	     -7.27949806	     13.68383940	     10.23111888	     -4.17274568	     24.49391906	      0.42749953	      6.96348308	     -3.94409390	     -7.27949806	    -14.18448385	     -8.46548177	      4.14373326	      5.53065749	     -5.32946137	     -3.33974264	     26.98591917	     99.90072961	     -1.51897022	     -7.12305926	     -5.58524668	     10.67775785	     77.20305838
      0.68000000	      5.67175186	      6.96301020	     -1.79435321	      0.80705860	      0.89039452	     -0.18153262	      3.88964965	     -7.74540867	     -0.46566758	     71.74541785	      1.25219376	     -9.46145498	    -16.75405660	     -7.28163773	     12.13528790	     10.09958286	     -4.08279444	     23.82122381	      0.41575879	      7.61913240	     -3.67326669	     -7.28163773	    -14.42207157	     -8.13526867	      3.89426571	      5.27904306	     -5.11795628	     -3.49083381	     26.03004906	     99.76028172	     -0.68823235	     -6.91166891	     -5.45415341	     12.05334087	     77.52133157
      0.69000000	      5.73186984	      6.65249422	     -1.80219039	      0.82004837	      0.89290203	     -0.18224761	      5.96672124	     -7.39614827	     -0.23461441	     72.99453322	      1.27399494	     -8.39722394	    -17.84060170	     -7.28774654	     10.77141711	      9.88634537	     -4.08658048	     23.27504937	      0.40622625	      8.42427121	     -3.14644083	     -7.28774654	    -14.55681452	     -7.67958771	      3.35517097	      5.27006289	     -4.89212380	     -3.59007636	     24.74973593	     99.44508846	     -0.28046069	     -6.69566762	     -5.62946605	     14.34685177	     78.27776745
      0.70000000	      5.82355462	      6.21900878	     -1.81977480	      0.83301467	      0.89554478	     -0.18287836	      7.90040243	     -6.81137817	      0.08608532	     73.72439396	      1.28673341	     -7.47847421	    -18.53303538	     -7.29019194	      9.28085839	      9.58906924	     -3.78566725	     22.52749229	      0.39317891	      8.91582250	     -2.97557544	     -7.29019194	    -14.68837581	     -7.09011319	      3.14125476	      4.92107068	     -4.85870562	     -3.53357722	     24.01401279	     99.30361361	      0.67778569	     -6.41230861	     -5.65679056	     15.66258149	     78.64957160
      0.71000000	      5.83881856	      5.74879928	     -1.73951489	      0.84588221	      0.89802801	     -0.18352629	      9.80338266	     -6.17102003	      0.28316129	     74.00516228	      1.29163375	     -6.64651720	    -18.97278742	     -7.29227043	      7.92440854	      9.24489898	     -3.38721623	     21.84775492	      0.38131526	      9.36418027	     -2.82143467	     -7.29227043	    -14.77258853	     -6.45884823	      2.78936209	      4.61658744	     -4.79680804	     -3.49313442	     23.25483494	     99.15736796	      1.53349030	     -6.18016621	     -5.55080483	     17.18668597	     79.05022013
      0.72000000	      5.90576182	      5.33116045	     -1.49839844	      0.85871798	      0.90039455	     -0.18436301	     11.52369087	     -5.68971192	      0.21258932	     73.89742209	      1.28975332	     -5.60935769	    -18.90399870	     -7.29775765	      6.57424749	      8.95961586	     -2.93927549	     21.28410302	      0.37147768	      9.97614391	     -2.67958906	     -7.29775765	    -14.97002806	     -5.84343080	      1.96486503	      4.59582927	     -4.70470446	     -3.20135855	     22.26558616	     98.81011167	      1.89909754	     -6.08528667	     -5.62172338	     19.67917452	     80.01616466
      0.73000000	      5.81271070	      4.82342808	     -1.23416685	      0.87150749	      0.90251177	     -0.18503475	     13.28843455	     -4.99667267	      0.23418372	     73.30634343	      1.27943706	     -4.91304470	    -18.93607882	     -7.29963985	      5.40564761	      8.52977589	     -2.49315376	     20.68457268	      0.36101390	     10.19275247	     -2.48727889	     -7.29963985	    -14.92371761	     -5.13302157	      1.53192158	      4.19365640	     -4.71273841	     -3.07325750	     21.75516196	     98.67406568	      2.90660647	     -5.88676138	     -5.57936903	     20.92693531	     80.42687234
      0.74000000	      5.89192597	      4.40319909	     -0.83846084	      0.88420991	      0.90458133	     -0.18585501	     14.72636673	     -4.54042080	      0.00677513	     72.36792059	      1.26305849	     -3.55532439	    -18.16009598	     -7.30670916	      4.06330354	      8.19454744	     -1.94244254	     20.09706084	      0.35075988	     10.72248677	     -2.24432986	     -7.30670916	    -15.18730017	     -4.50559789	      0.52701671	      4.14580947	     -4.67210999	     -2.57137092	     21.03985415	     98.18596489	      3.28969643	     -5.86129164	     -5.76834304	     23.39442772	     81.83659868
      0.75000000	      5.75121002	      3.94500052	     -0.41650606	      0.89684069	      0.90614608	     -0.18658920	     16.31943112	     -3.98839379	     -0.19393379	     71.07667503	      1.24052200	     -2.84054006	    -18.09318934	     -7.30842857	      3.01144829	      7.76421273	     -1.51669940	     19.56090420	      0.34140218	     10.93416887	     -2.01500360	     -7.30842857	    -15.09848413	     -3.82647432	      0.03297626	      3.70084886	     -4.73815162	     -2.49507852	     20.63872626	     98.04245081	      4.37236209	     -5.70821989	     -5.64849241	     24.64934333	     82.28433504
      0.76000000	      5.90666188	      3.59852641	      0.13143106	      0.90947816	      0.90783131	     -0.18739339	     17.38604173	     -3.67655436	     -0.57757164	     69.36872187	      1.21071259	     -1.56474407	    -17.34221295	     -7.31359794	      1.60249671	      7.42892521	     -1.03532759	     18.97419324	      0.33116215	     11.53789859	     -1.59332781	     -7.31359794	    -15.44563711	     -3.24650164	     -0.99014679	      3.54304071	     -4.70371315	     -2.31347009	     20.23614733	     97.62847931	      4.92876961	     -5.80756581	     -5.42095034	     26.98255581	     83.53339396
      0.77000000	      5.84184101	      3.24359534	      0.64124772	      0.92200318	      0.90895534	     -0.18806109	     18.61665986	     -3.31739049	     -0.86695230	     67.33667021	      1.17524660	     -0.63946778	    -16.98462963	     -7.31683570	      0.48937709	      7.04833075	     -0.61218451	     18.45361679	      0.32207637	     11.85386189	     -1.15267006	     -7.31683570	    -15.50363383	     -2.68418348	     -1.68113340	      3.17534900	     -4.72996443	     -2.24297708	     19.91637876	     97.36461757	      5.85261768	     -5.81313573	     -5.22020073	     28.62386243	     84.35392061
      0.78000000	      5.86820456	      3.00474866	      1.18113283	      0.93455623	      0.90983505	     -0.18871167	     19.62567111	     -3.17508423	     -1.25942044	     65.04125344	      1.13518402	      0.47103791	    -16.31399941	     -7.37737687	     -0.71814372	      6.71973422	     -0.52206198	     17.91031207	      0.31259392	     12.38864505	     -0.26362097	     -7.37737687	    -15.66861935	     -2.27057658	     -2.73662425	      3.09024920	     -4.79522684	     -0.67371333	     19.47591116	     93.91122795	      6.46094235	     -5.76176460	     -6.95083318	     29.99212993	     94.40169720
